<svg width="205" height="237" viewBox="0 0 205 237" fill="none" xmlns="http://www.w3.org/2000/svg">
<g filter="url(#filter0_d)">
<path d="M102.252 44.7832H113.343L125.024 47.9021L133.586 54.1279L137.217 68.139L134.104 77.4837L131.166 74.7983L125.71 68.5003L121.736 61.1365L117.757 54.1279L102.252 49.4555" stroke="#FF6633" stroke-miterlimit="10" stroke-linecap="round" stroke-linejoin="round"/>
<path d="M102.252 49.4555L125.024 47.9021L151.077 40.159L170.67 50.3346L188.504 70.3066L175.192 105.596L143.798 136.743L128.137 138.351" stroke="#FF6633" stroke-miterlimit="10" stroke-linecap="round" stroke-linejoin="round"/>
<path d="M151.077 40.159L134.965 59.4445L176.571 101.953L162.71 65.0743" stroke="#FF6633" stroke-miterlimit="10" stroke-linecap="round" stroke-linejoin="round"/>
<path d="M188.504 70.3066L134.965 59.4445" stroke="#FF6633" stroke-miterlimit="10" stroke-linecap="round" stroke-linejoin="round"/>
<path d="M177.143 57.578L145.381 46.8183" stroke="#FF6633" stroke-miterlimit="10" stroke-linecap="round" stroke-linejoin="round"/>
<path d="M162.385 87.4607L134.965 90.2665L143.798 136.743" stroke="#FF6633" stroke-miterlimit="10" stroke-linecap="round" stroke-linejoin="round"/>
<path d="M166.01 114.706L134.965 90.2665L128.601 108.86V121.293" stroke="#FF6633" stroke-miterlimit="10" stroke-linecap="round" stroke-linejoin="round"/>
<path d="M120.767 84.1732L131.166 74.7983L134.104 77.4837L134.965 90.2665L123.82 103.007L121.887 97.2269L120.767 84.1732Z" stroke="#FF6633" stroke-miterlimit="10" stroke-linecap="round" stroke-linejoin="round"/>
<path d="M126.903 86.8225L130.485 85.6243L130.112 90.5977L125.241 90.9349L126.903 86.8225Z" stroke="#FF6633" stroke-miterlimit="10" stroke-linecap="round" stroke-linejoin="round"/>
<path d="M102.252 78.2003L111.537 78.8867L120.767 84.1732" stroke="#FF6633" stroke-miterlimit="10" stroke-linecap="round" stroke-linejoin="round"/>
<path d="M102.252 88.2796L113.957 90.2665L121.887 97.2269" stroke="#FF6633" stroke-miterlimit="10" stroke-linecap="round" stroke-linejoin="round"/>
<path d="M102.252 97.2269L113.614 100.075L122.688 108.27" stroke="#FF6633" stroke-miterlimit="10" stroke-linecap="round" stroke-linejoin="round"/>
<path d="M102.252 106.325L112.018 108.673L120.912 116.543" stroke="#FF6633" stroke-miterlimit="10" stroke-linecap="round" stroke-linejoin="round"/>
<path d="M102.252 115.892L110.513 117.211L119.256 124.262" stroke="#FF6633" stroke-miterlimit="10" stroke-linecap="round" stroke-linejoin="round"/>
<path d="M102.252 124.262L109.538 125.442L117.708 131.445" stroke="#FF6633" stroke-miterlimit="10" stroke-linecap="round" stroke-linejoin="round"/>
<path d="M102.252 132.408L109.514 133.763L116.203 138.441" stroke="#FF6633" stroke-miterlimit="10" stroke-linecap="round" stroke-linejoin="round"/>
<path d="M102.252 140.133L109.369 140.976L114.909 144.474" stroke="#FF6633" stroke-miterlimit="10" stroke-linecap="round" stroke-linejoin="round"/>
<path d="M102.252 147.286L108.659 147.792L113.614 150.508" stroke="#FF6633" stroke-miterlimit="10" stroke-linecap="round" stroke-linejoin="round"/>
<path d="M102.252 153.705L107.442 154.132L113.319 156.926" stroke="#FF6633" stroke-miterlimit="10" stroke-linecap="round" stroke-linejoin="round"/>
<path d="M102.252 159.154L107.442 159.581L113.108 161.424" stroke="#FF6633" stroke-miterlimit="10" stroke-linecap="round" stroke-linejoin="round"/>
<path d="M102.252 164.019L107.479 164.591L112.879 166.482" stroke="#FF6633" stroke-miterlimit="10" stroke-linecap="round" stroke-linejoin="round"/>
<path d="M102.252 169.185L107.418 169.823L112.645 171.557" stroke="#FF6633" stroke-miterlimit="10" stroke-linecap="round" stroke-linejoin="round"/>
<path d="M102.252 174.291L107.406 174.724L112.416 176.573" stroke="#FF6633" stroke-miterlimit="10" stroke-linecap="round" stroke-linejoin="round"/>
<path d="M102.252 179.337L107.4 179.698L112.187 181.576" stroke="#FF6633" stroke-miterlimit="10" stroke-linecap="round" stroke-linejoin="round"/>
<path d="M102.252 184.147L107.388 184.491L111.952 186.604" stroke="#FF6633" stroke-miterlimit="10" stroke-linecap="round" stroke-linejoin="round"/>
<path d="M102.252 189.542L107.376 189.874L111.723 191.662" stroke="#FF6633" stroke-miterlimit="10" stroke-linecap="round" stroke-linejoin="round"/>
<path d="M102.252 194.582L107.364 194.895L111.495 196.653" stroke="#FF6633" stroke-miterlimit="10" stroke-linecap="round" stroke-linejoin="round"/>
<path d="M102.252 199.146L107.352 199.447L111.326 200.332" stroke="#FF6633" stroke-miterlimit="10" stroke-linecap="round" stroke-linejoin="round"/>
<path d="M102.252 202.68L106.876 202.939L111.163 203.861" stroke="#FF6633" stroke-miterlimit="10" stroke-linecap="round" stroke-linejoin="round"/>
<path d="M102.252 205.781L107.334 206.046L111.025 206.925" stroke="#FF6633" stroke-miterlimit="10" stroke-linecap="round" stroke-linejoin="round"/>
<path d="M102.252 209.484L107.322 209.731L110.85 210.731" stroke="#FF6633" stroke-miterlimit="10" stroke-linecap="round" stroke-linejoin="round"/>
<path d="M102.252 212.621L107.322 212.868L111.705 214.108" stroke="#FF6633" stroke-miterlimit="10" stroke-linecap="round" stroke-linejoin="round"/>
<path d="M102.252 216.493L107.322 216.74L112.807 218.444" stroke="#FF6633" stroke-miterlimit="10" stroke-linecap="round" stroke-linejoin="round"/>
<path d="M123.82 103.007L113.614 150.508L110.85 210.731L112.807 218.444L109.008 221.322L102.252 219.365" stroke="#FF6633" stroke-miterlimit="10" stroke-linecap="round" stroke-linejoin="round"/>
<path d="M123.82 103.007L126.222 109.191L128.601 121.293L130.046 127.856L129.281 133.215H124.368L116.853 135.425" stroke="#FF6633" stroke-miterlimit="10" stroke-linecap="round" stroke-linejoin="round"/>
<path d="M120.912 116.543L129.281 133.215" stroke="#FF6633" stroke-miterlimit="10" stroke-linecap="round" stroke-linejoin="round"/>
<path d="M126.782 133.215L130.485 147.286L127.866 164.019L119.78 175.429L124.476 159.154L123.452 146.1L118.533 134.931" stroke="#FF6633" stroke-miterlimit="10" stroke-linecap="round" stroke-linejoin="round"/>
<path d="M121.586 60.8655L102.252 71.6493" stroke="#FF6633" stroke-miterlimit="10" stroke-linecap="round" stroke-linejoin="round"/>
<path d="M102.252 44.7832H91.1614L79.4865 47.9021L70.9184 54.1279L67.2877 68.139L70.4006 77.4837L73.3389 74.7983L78.8 68.5003L82.768 61.1365L86.7479 54.1279L102.252 49.4555" stroke="#FF6633" stroke-miterlimit="10" stroke-linecap="round" stroke-linejoin="round"/>
<path d="M102.252 49.4555L79.4865 47.9021L53.4271 40.159L33.8345 50.3346L16 70.3066L29.3126 105.596L60.7127 136.743L76.3736 138.351" stroke="#FF6633" stroke-miterlimit="10" stroke-linecap="round" stroke-linejoin="round"/>
<path d="M53.4271 40.159L69.5396 59.4445L27.9398 101.953L41.7944 65.0743" stroke="#FF6633" stroke-miterlimit="10" stroke-linecap="round" stroke-linejoin="round"/>
<path d="M16 70.3066L69.5396 59.4445" stroke="#FF6633" stroke-miterlimit="10" stroke-linecap="round" stroke-linejoin="round"/>
<path d="M27.3618 57.578L59.1231 46.8183" stroke="#FF6633" stroke-miterlimit="10" stroke-linecap="round" stroke-linejoin="round"/>
<path d="M42.1195 87.4607L69.5396 90.2665L60.7127 136.743" stroke="#FF6633" stroke-miterlimit="10" stroke-linecap="round" stroke-linejoin="round"/>
<path d="M38.4948 114.706L69.5396 90.2665L75.9099 108.86V121.293" stroke="#FF6633" stroke-miterlimit="10" stroke-linecap="round" stroke-linejoin="round"/>
<path d="M83.7373 84.1732L73.3389 74.7983L70.4006 77.4837L69.5396 90.2665L80.6846 103.007L82.6174 97.2269L83.7373 84.1732Z" stroke="#FF6633" stroke-miterlimit="10" stroke-linecap="round" stroke-linejoin="round"/>
<path d="M77.6018 86.8225L74.0253 85.6243L74.3926 90.5977L79.2697 90.9349L77.6018 86.8225Z" stroke="#FF6633" stroke-miterlimit="10" stroke-linecap="round" stroke-linejoin="round"/>
<path d="M102.252 78.2003L92.9677 78.8867L83.7373 84.1732" stroke="#FF6633" stroke-miterlimit="10" stroke-linecap="round" stroke-linejoin="round"/>
<path d="M102.252 88.2796L90.5472 90.2665L82.6174 97.2269" stroke="#FF6633" stroke-miterlimit="10" stroke-linecap="round" stroke-linejoin="round"/>
<path d="M102.252 97.2269L90.8964 100.075L81.8166 108.27" stroke="#FF6633" stroke-miterlimit="10" stroke-linecap="round" stroke-linejoin="round"/>
<path d="M102.252 106.325L92.486 108.673L83.5928 116.543" stroke="#FF6633" stroke-miterlimit="10" stroke-linecap="round" stroke-linejoin="round"/>
<path d="M102.252 115.892L93.9913 117.211L85.2547 124.262" stroke="#FF6633" stroke-miterlimit="10" stroke-linecap="round" stroke-linejoin="round"/>
<path d="M102.252 124.262L94.9667 125.442L86.7961 131.445" stroke="#FF6633" stroke-miterlimit="10" stroke-linecap="round" stroke-linejoin="round"/>
<path d="M102.252 132.408L94.9908 133.763L88.3013 138.441" stroke="#FF6633" stroke-miterlimit="10" stroke-linecap="round" stroke-linejoin="round"/>
<path d="M102.252 140.133L95.1413 140.976L89.5959 144.474" stroke="#FF6633" stroke-miterlimit="10" stroke-linecap="round" stroke-linejoin="round"/>
<path d="M102.252 147.286L95.8458 147.792L90.8964 150.508" stroke="#FF6633" stroke-miterlimit="10" stroke-linecap="round" stroke-linejoin="round"/>
<path d="M102.252 153.705L97.062 154.132L91.1854 156.926" stroke="#FF6633" stroke-miterlimit="10" stroke-linecap="round" stroke-linejoin="round"/>
<path d="M102.252 159.154L97.062 159.581L91.3961 161.424" stroke="#FF6633" stroke-miterlimit="10" stroke-linecap="round" stroke-linejoin="round"/>
<path d="M102.252 164.019L97.0319 164.591L91.6249 166.482" stroke="#FF6633" stroke-miterlimit="10" stroke-linecap="round" stroke-linejoin="round"/>
<path d="M102.252 169.185L97.0861 169.823L91.8598 171.557" stroke="#FF6633" stroke-miterlimit="10" stroke-linecap="round" stroke-linejoin="round"/>
<path d="M102.252 174.291L97.0982 174.724L92.0886 176.573" stroke="#FF6633" stroke-miterlimit="10" stroke-linecap="round" stroke-linejoin="round"/>
<path d="M102.252 179.337L97.1102 179.698L92.3174 181.576" stroke="#FF6633" stroke-miterlimit="10" stroke-linecap="round" stroke-linejoin="round"/>
<path d="M102.252 184.147L97.1222 184.491L92.5522 186.604" stroke="#FF6633" stroke-miterlimit="10" stroke-linecap="round" stroke-linejoin="round"/>
<path d="M102.252 189.542L97.1283 189.874L92.781 191.662" stroke="#FF6633" stroke-miterlimit="10" stroke-linecap="round" stroke-linejoin="round"/>
<path d="M102.252 194.582L97.1403 194.895L93.0098 196.653" stroke="#FF6633" stroke-miterlimit="10" stroke-linecap="round" stroke-linejoin="round"/>
<path d="M102.252 199.146L97.1523 199.447L93.1784 200.332" stroke="#FF6633" stroke-miterlimit="10" stroke-linecap="round" stroke-linejoin="round"/>
<path d="M102.252 202.68L97.634 202.939L93.341 203.861" stroke="#FF6633" stroke-miterlimit="10" stroke-linecap="round" stroke-linejoin="round"/>
<path d="M102.252 205.781L97.1765 206.046L93.4855 206.925" stroke="#FF6633" stroke-miterlimit="10" stroke-linecap="round" stroke-linejoin="round"/>
<path d="M102.252 209.484L97.1885 209.731L93.6601 210.731" stroke="#FF6633" stroke-miterlimit="10" stroke-linecap="round" stroke-linejoin="round"/>
<path d="M102.252 212.621L97.1885 212.868L92.7991 214.108" stroke="#FF6633" stroke-miterlimit="10" stroke-linecap="round" stroke-linejoin="round"/>
<path d="M102.252 216.493L97.1884 216.74L91.7032 218.444" stroke="#FF6633" stroke-miterlimit="10" stroke-linecap="round" stroke-linejoin="round"/>
<path d="M80.6846 103.007L90.8964 150.508L93.6601 210.731L91.7032 218.444L95.5025 221.322L102.252 219.365" stroke="#FF6633" stroke-miterlimit="10" stroke-linecap="round" stroke-linejoin="round"/>
<path d="M80.6846 103.007L78.2822 109.191L75.9099 121.293L74.4588 127.856L75.2235 133.215H80.1367L87.651 135.425" stroke="#FF6633" stroke-miterlimit="10" stroke-linecap="round" stroke-linejoin="round"/>
<path d="M83.5929 116.543L75.2235 133.215" stroke="#FF6633" stroke-miterlimit="10" stroke-linecap="round" stroke-linejoin="round"/>
<path d="M77.7223 133.215L74.0253 147.286L76.6384 164.019L84.7248 175.429L80.0283 159.154L81.058 146.1L85.9712 134.931" stroke="#FF6633" stroke-miterlimit="10" stroke-linecap="round" stroke-linejoin="round"/>
<path d="M82.9185 60.8655L102.252 71.6493" stroke="#FF6633" stroke-miterlimit="10" stroke-linecap="round" stroke-linejoin="round"/>
</g>
<path d="M45.0805 9.18H48.9805V22H50.3805V9.18H54.2605V8.02H45.0805V9.18ZM61.1311 12.12C63.1511 12.12 64.9911 13.4 64.9311 15.94H57.2511C57.4111 13.4 59.1511 12.12 61.1311 12.12ZM66.1911 18.54H64.7111C64.3111 20 63.0511 20.98 61.1911 20.98C59.1511 20.98 57.3711 19.64 57.2511 17.08H66.3111C66.3511 16.7 66.3511 16.42 66.3511 15.98C66.3511 13.2 64.3911 10.92 61.1911 10.92C58.0511 10.92 55.8311 13.06 55.8311 16.54C55.8311 20 58.0911 22.16 61.1911 22.16C63.9311 22.16 65.6911 20.6 66.1911 18.54ZM68.2725 16.54C68.2725 20 70.4925 22.16 73.5725 22.16C76.3125 22.16 78.0925 20.62 78.5925 18.44H77.0925C76.7125 20.04 75.4125 20.98 73.5725 20.98C71.4325 20.98 69.6925 19.5 69.6925 16.54C69.6925 13.58 71.4325 12.12 73.5725 12.12C75.4125 12.12 76.7325 13.08 77.0925 14.64H78.5925C78.0925 12.38 76.3125 10.92 73.5725 10.92C70.4925 10.92 68.2725 13.08 68.2725 16.54ZM81.1781 22H82.5781V16.04C82.5781 13.38 83.9981 12.1 86.0381 12.1C88.0381 12.1 89.3581 13.34 89.3581 15.76V22H90.7381V15.6C90.7381 12.4 88.7981 10.88 86.3781 10.88C84.7181 10.88 83.2781 11.6 82.5781 12.94V7.2H81.1781V22ZM102.014 22H103.394V15.6C103.394 12.4 101.434 10.88 98.9544 10.88C97.3344 10.88 95.9344 11.58 95.2344 12.94V11.08H93.8344V22H95.2344V16.04C95.2344 13.38 96.6544 12.1 98.6944 12.1C100.694 12.1 102.014 13.34 102.014 15.76V22ZM116.771 16.54C116.771 13.06 114.391 10.92 111.311 10.92C108.251 10.92 105.851 13.06 105.851 16.54C105.851 20 108.191 22.16 111.271 22.16C114.351 22.16 116.771 20 116.771 16.54ZM107.271 16.54C107.271 13.54 109.211 12.14 111.291 12.14C113.371 12.14 115.331 13.54 115.331 16.54C115.331 19.54 113.331 20.94 111.271 20.94C109.191 20.94 107.271 19.54 107.271 16.54ZM119.323 22H120.723V7.2H119.323V22ZM134.173 16.54C134.173 13.06 131.793 10.92 128.713 10.92C125.653 10.92 123.253 13.06 123.253 16.54C123.253 20 125.593 22.16 128.673 22.16C131.753 22.16 134.173 20 134.173 16.54ZM124.673 16.54C124.673 13.54 126.613 12.14 128.693 12.14C130.773 12.14 132.733 13.54 132.733 16.54C132.733 19.54 130.733 20.94 128.673 20.94C126.593 20.94 124.673 19.54 124.673 16.54ZM136.085 16.52C136.085 19.94 138.305 22.16 141.305 22.16C143.465 22.16 144.985 20.98 145.625 19.58V22.28C145.625 24.76 144.005 26.14 141.925 26.14C139.925 26.14 138.545 25.12 138.085 23.64H136.705C137.145 25.92 139.105 27.36 141.925 27.36C144.925 27.36 147.025 25.34 147.025 22.28V11.08H145.625V13.46C145.005 12.08 143.465 10.92 141.305 10.92C138.305 10.92 136.085 13.1 136.085 16.52ZM145.625 16.54C145.625 19.26 143.805 20.94 141.565 20.94C139.265 20.94 137.505 19.28 137.505 16.52C137.505 13.74 139.265 12.14 141.565 12.14C143.805 12.14 145.625 13.82 145.625 16.54ZM154.181 20.4L150.461 11.08H148.921L153.401 21.94L151.281 27.14H152.741L159.221 11.08H157.781L154.181 20.4Z" fill="#FF6633"/>
<defs>
<filter id="filter0_d" x="0.499901" y="24.6589" width="203.505" height="212.163" filterUnits="userSpaceOnUse" color-interpolation-filters="sRGB">
<feFlood flood-opacity="0" result="BackgroundImageFix"/>
<feColorMatrix in="SourceAlpha" type="matrix" values="0 0 0 0 0 0 0 0 0 0 0 0 0 0 0 0 0 0 127 0"/>
<feOffset/>
<feGaussianBlur stdDeviation="7.5"/>
<feColorMatrix type="matrix" values="0 0 0 0 1 0 0 0 0 0.4 0 0 0 0 0.2 0 0 0 1 0"/>
<feBlend mode="hard-light" in2="BackgroundImageFix" result="effect1_dropShadow"/>
<feBlend mode="normal" in="SourceGraphic" in2="effect1_dropShadow" result="shape"/>
</filter>
</defs>
</svg>
