<svg width="179" height="253" viewBox="0 0 179 253" fill="none" xmlns="http://www.w3.org/2000/svg">
<g filter="url(#filter0_d)">
<path d="M47.1231 127.613L56.3835 135.369" stroke="#99CC33" stroke-miterlimit="10" stroke-linecap="round" stroke-linejoin="round"/>
<path d="M122.284 128.107L109.935 177.89" stroke="#99CC33" stroke-miterlimit="10" stroke-linecap="round" stroke-linejoin="round"/>
<path d="M90.1739 174.193L110.483 124.049" stroke="#99CC33" stroke-miterlimit="10" stroke-linecap="round" stroke-linejoin="round"/>
<path d="M64.9214 162.078L73.6761 236.559" stroke="#99CC33" stroke-miterlimit="10" stroke-linecap="round" stroke-linejoin="round"/>
<path d="M90.1739 174.193L89.8186 151.674L76.3193 195.327L81.1061 209.272" stroke="#99CC33" stroke-miterlimit="10" stroke-linecap="round" stroke-linejoin="round"/>
<path d="M89.0841 70.5274L92.203 84.2374L95.2919 92.1672L135.615 98.682L121.478 84.4963" stroke="#99CC33" stroke-miterlimit="10" stroke-linecap="round" stroke-linejoin="round"/>
<path d="M135.615 98.682L93.7926 130.853L89.8187 151.674" stroke="#99CC33" stroke-miterlimit="10" stroke-linecap="round" stroke-linejoin="round"/>
<path d="M98.4649 80.685L135.615 98.682" stroke="#99CC33" stroke-miterlimit="10" stroke-linecap="round" stroke-linejoin="round"/>
<path d="M86.0796 111.206L86.6455 130.347L73.0921 167.822L64.9214 162.078" stroke="#99CC33" stroke-miterlimit="10" stroke-linecap="round" stroke-linejoin="round"/>
<path d="M154.871 125.885L153.082 148.741" stroke="#99CC33" stroke-miterlimit="10" stroke-linecap="round" stroke-linejoin="round"/>
<path d="M95.2918 92.1672L93.7926 130.853" stroke="#99CC33" stroke-miterlimit="10" stroke-linecap="round" stroke-linejoin="round"/>
<path d="M107.852 178.311L100.006 199.319" stroke="#99CC33" stroke-miterlimit="10" stroke-linecap="round" stroke-linejoin="round"/>
<path d="M129.763 116.288L138.866 162.813L118.202 181.141" stroke="#99CC33" stroke-miterlimit="10" stroke-linecap="round" stroke-linejoin="round"/>
<path d="M129.763 116.288L127.523 152.384" stroke="#99CC33" stroke-miterlimit="10" stroke-linecap="round" stroke-linejoin="round"/>
<path d="M74.212 124.344L64.9214 162.078" stroke="#99CC33" stroke-miterlimit="10" stroke-linecap="round" stroke-linejoin="round"/>
<path d="M90.1739 174.193L81.1061 209.271" stroke="#99CC33" stroke-miterlimit="10" stroke-linecap="round" stroke-linejoin="round"/>
<path d="M86.6456 130.347L64.9214 161.819L48.7126 178.781" stroke="#99CC33" stroke-miterlimit="10" stroke-linecap="round" stroke-linejoin="round"/>
<path d="M76.7469 48.0446L86.206 38.3265L136.717 64.8555" stroke="#99CC33" stroke-miterlimit="10" stroke-linecap="round" stroke-linejoin="round"/>
<path d="M136.043 150.199L118.202 181.141" stroke="#99CC33" stroke-miterlimit="10" stroke-linecap="round" stroke-linejoin="round"/>
<path d="M64.9214 162.078L62.248 210.114" stroke="#99CC33" stroke-miterlimit="10" stroke-linecap="round" stroke-linejoin="round"/>
<path d="M62.4889 70.136L16 113.121" stroke="#99CC33" stroke-miterlimit="10" stroke-linecap="round" stroke-linejoin="round"/>
<path d="M92.8352 58.3648L121.478 84.4963" stroke="#99CC33" stroke-miterlimit="10" stroke-linecap="round" stroke-linejoin="round"/>
<path d="M110.483 124.049L89.8187 151.674" stroke="#99CC33" stroke-miterlimit="10" stroke-linecap="round" stroke-linejoin="round"/>
<path d="M135.615 98.682L153.082 148.741" stroke="#99CC33" stroke-miterlimit="10" stroke-linecap="round" stroke-linejoin="round"/>
<path d="M64.9214 162.078L82.9847 214.757" stroke="#99CC33" stroke-miterlimit="10" stroke-linecap="round" stroke-linejoin="round"/>
<path d="M66.3906 143.431L48.7126 178.781" stroke="#99CC33" stroke-miterlimit="10" stroke-linecap="round" stroke-linejoin="round"/>
<path d="M122.284 128.107L106.943 150.205L110.634 184.501" stroke="#99CC33" stroke-miterlimit="10" stroke-linecap="round" stroke-linejoin="round"/>
<path d="M41.2465 184.049L54.6253 210.626" stroke="#99CC33" stroke-miterlimit="10" stroke-linecap="round" stroke-linejoin="round"/>
<path d="M129.763 116.288L153.082 148.741" stroke="#99CC33" stroke-miterlimit="10" stroke-linecap="round" stroke-linejoin="round"/>
<path d="M95.2918 92.1672L107.286 106.534L93.7926 130.853" stroke="#99CC33" stroke-miterlimit="10" stroke-linecap="round" stroke-linejoin="round"/>
<path d="M110.483 124.049L101.518 164.186" stroke="#99CC33" stroke-miterlimit="10" stroke-linecap="round" stroke-linejoin="round"/>
<path d="M86.206 38.3265L78.0053 64.2534" stroke="#99CC33" stroke-miterlimit="10" stroke-linecap="round" stroke-linejoin="round"/>
<path d="M73.092 167.822L76.3193 195.327" stroke="#99CC33" stroke-miterlimit="10" stroke-linecap="round" stroke-linejoin="round"/>
<path d="M82.4127 86.7723L75.8678 110.875" stroke="#99CC33" stroke-miterlimit="10" stroke-linecap="round" stroke-linejoin="round"/>
<path d="M136.133 149.494L127.523 152.384L109.935 177.89" stroke="#99CC33" stroke-miterlimit="10" stroke-linecap="round" stroke-linejoin="round"/>
<path d="M127.523 152.384L118.202 181.141" stroke="#99CC33" stroke-miterlimit="10" stroke-linecap="round" stroke-linejoin="round"/>
<path d="M52.7648 99.8381L46.7076 127.439" stroke="#99CC33" stroke-miterlimit="10" stroke-linecap="round" stroke-linejoin="round"/>
<path d="M94.8403 183.447L92.7509 188.878L81.1061 209.272" stroke="#99CC33" stroke-miterlimit="10" stroke-linecap="round" stroke-linejoin="round"/>
<path d="M68.3173 44.3055L62.4889 70.136" stroke="#99CC33" stroke-miterlimit="10" stroke-linecap="round" stroke-linejoin="round"/>
<path d="M135.615 98.682L137.723 114.03L153.082 148.741" stroke="#99CC33" stroke-miterlimit="10" stroke-linecap="round" stroke-linejoin="round"/>
<path d="M92.8352 58.3648L95.2918 92.1672" stroke="#99CC33" stroke-miterlimit="10" stroke-linecap="round" stroke-linejoin="round"/>
<path d="M135.615 98.682L159.218 118.076" stroke="#99CC33" stroke-miterlimit="10" stroke-linecap="round" stroke-linejoin="round"/>
<path d="M21.8946 123.778L24.7125 132.689V145.791L42.7577 150.554L51.0066 145.345" stroke="#99CC33" stroke-miterlimit="10" stroke-linecap="round" stroke-linejoin="round"/>
<path d="M82.4127 86.7723L65.385 94.1361L52.7648 99.8381L32.1124 115.288L21.8946 123.778" stroke="#99CC33" stroke-miterlimit="10" stroke-linecap="round" stroke-linejoin="round"/>
<path d="M55.9801 92.2876L82.4127 86.7723L77.5597 76.2775L78.0053 64.2534" stroke="#99CC33" stroke-miterlimit="10" stroke-linecap="round" stroke-linejoin="round"/>
<path d="M107.286 106.534L135.615 98.682L129.763 116.288L122.284 128.107L127.523 152.384" stroke="#99CC33" stroke-miterlimit="10" stroke-linecap="round" stroke-linejoin="round"/>
<path d="M92.8352 58.3648L136.717 64.8555" stroke="#99CC33" stroke-miterlimit="10" stroke-linecap="round" stroke-linejoin="round"/>
<path d="M46.828 127.324L35.3398 138.15L56.3835 135.369L64.7829 121.159L75.8678 110.875" stroke="#99CC33" stroke-miterlimit="10" stroke-linecap="round" stroke-linejoin="round"/>
<path d="M93.7926 130.853L129.763 116.288L137.722 114.03" stroke="#99CC33" stroke-miterlimit="10" stroke-linecap="round" stroke-linejoin="round"/>
<path d="M86.0796 111.206L93.7926 130.853" stroke="#99CC33" stroke-miterlimit="10" stroke-linecap="round" stroke-linejoin="round"/>
<path d="M76.3193 195.327L90.1739 174.193L101.518 164.186L100.006 199.319" stroke="#99CC33" stroke-miterlimit="10" stroke-linecap="round" stroke-linejoin="round"/>
<path d="M148.073 141.763L138.867 162.813" stroke="#99CC33" stroke-miterlimit="10" stroke-linecap="round" stroke-linejoin="round"/>
<path d="M86.206 38.3265L92.8352 58.3648L138.62 75.6634L134.369 85.3634" stroke="#99CC33" stroke-miterlimit="10" stroke-linecap="round" stroke-linejoin="round"/>
<path d="M62.4889 70.136L76.7468 48.0446" stroke="#99CC33" stroke-miterlimit="10" stroke-linecap="round" stroke-linejoin="round"/>
<path d="M136.849 79.7095L151.86 101.361L159.218 118.076L163.059 122.351L154.871 125.885" stroke="#99CC33" stroke-miterlimit="10" stroke-linecap="round" stroke-linejoin="round"/>
<path d="M101.518 164.186L94.8403 183.447L100.006 199.319" stroke="#99CC33" stroke-miterlimit="10" stroke-linecap="round" stroke-linejoin="round"/>
<path d="M75.8678 110.875L86.6455 130.347" stroke="#99CC33" stroke-miterlimit="10" stroke-linecap="round" stroke-linejoin="round"/>
<path d="M24.7125 145.791L30.2459 155.142L42.7578 150.554L51.0067 145.346" stroke="#99CC33" stroke-miterlimit="10" stroke-linecap="round" stroke-linejoin="round"/>
<path d="M86.6455 130.347L74.2119 124.344L56.3835 135.369" stroke="#99CC33" stroke-miterlimit="10" stroke-linecap="round" stroke-linejoin="round"/>
<path d="M59.9962 50.6577L62.4889 70.136" stroke="#99CC33" stroke-miterlimit="10" stroke-linecap="round" stroke-linejoin="round"/>
<path d="M52.7648 99.8381V116.763" stroke="#99CC33" stroke-miterlimit="10" stroke-linecap="round" stroke-linejoin="round"/>
<path d="M138.62 75.6634L121.478 84.4963" stroke="#99CC33" stroke-miterlimit="10" stroke-linecap="round" stroke-linejoin="round"/>
<path d="M73.092 167.822L89.8186 151.674" stroke="#99CC33" stroke-miterlimit="10" stroke-linecap="round" stroke-linejoin="round"/>
<path d="M42.535 88.7111L43.6609 77.8611L62.4889 70.136" stroke="#99CC33" stroke-miterlimit="10" stroke-linecap="round" stroke-linejoin="round"/>
<path d="M86.6455 130.347L89.8186 151.674" stroke="#99CC33" stroke-miterlimit="10" stroke-linecap="round" stroke-linejoin="round"/>
<path d="M82.4127 86.7723L65.7403 101.506" stroke="#99CC33" stroke-miterlimit="10" stroke-linecap="round" stroke-linejoin="round"/>
<path d="M52.1507 156.063L41.7583 175.222" stroke="#99CC33" stroke-miterlimit="10" stroke-linecap="round" stroke-linejoin="round"/>
<path d="M64.9215 162.078L56.6485 179.136" stroke="#99CC33" stroke-miterlimit="10" stroke-linecap="round" stroke-linejoin="round"/>
<path d="M32.1125 115.288L46.7076 127.439L52.8672 126.102" stroke="#99CC33" stroke-miterlimit="10" stroke-linecap="round" stroke-linejoin="round"/>
<path d="M35.3398 138.15L51.0066 145.346" stroke="#99CC33" stroke-miterlimit="10" stroke-linecap="round" stroke-linejoin="round"/>
<path d="M62.4889 70.136L92.8352 58.3648" stroke="#99CC33" stroke-miterlimit="10" stroke-linecap="round" stroke-linejoin="round"/>
<path d="M135.615 98.682L151.86 101.361" stroke="#99CC33" stroke-miterlimit="10" stroke-linecap="round" stroke-linejoin="round"/>
<path d="M65.7403 101.506L52.7648 116.763" stroke="#99CC33" stroke-miterlimit="10" stroke-linecap="round" stroke-linejoin="round"/>
<path d="M110.483 124.049L106.943 150.205" stroke="#99CC33" stroke-miterlimit="10" stroke-linecap="round" stroke-linejoin="round"/>
<path d="M62.4889 70.136L53.6499 65.6864H44.4798L43.6609 77.8611" stroke="#99CC33" stroke-miterlimit="10" stroke-linecap="round" stroke-linejoin="round"/>
<path d="M78.0053 64.2534L76.7469 48.0446L68.3173 44.3055L59.9962 50.6577L53.6499 65.6864" stroke="#99CC33" stroke-miterlimit="10" stroke-linecap="round" stroke-linejoin="round"/>
<path d="M75.8677 110.875L67.7634 108.298L52.7648 116.763L52.8672 126.102" stroke="#99CC33" stroke-miterlimit="10" stroke-linecap="round" stroke-linejoin="round"/>
<path d="M75.8677 110.875L74.2119 124.344" stroke="#99CC33" stroke-miterlimit="10" stroke-linecap="round" stroke-linejoin="round"/>
<path d="M74.212 124.344L66.3906 143.431L51.0067 145.346" stroke="#99CC33" stroke-miterlimit="10" stroke-linecap="round" stroke-linejoin="round"/>
<path d="M42.7578 150.554L39.0488 161.596L41.7583 175.222L41.2465 184.049L54.7518 192.768" stroke="#99CC33" stroke-miterlimit="10" stroke-linecap="round" stroke-linejoin="round"/>
<path d="M116.992 75.3924L138.62 75.6634" stroke="#99CC33" stroke-miterlimit="10" stroke-linecap="round" stroke-linejoin="round"/>
<path d="M35.3398 138.15L42.7577 150.554" stroke="#99CC33" stroke-miterlimit="10" stroke-linecap="round" stroke-linejoin="round"/>
<path d="M69.9129 204.533L82.9847 214.757" stroke="#99CC33" stroke-miterlimit="10" stroke-linecap="round" stroke-linejoin="round"/>
<path d="M56.3835 135.369L52.8672 126.102L64.7829 121.159" stroke="#99CC33" stroke-miterlimit="10" stroke-linecap="round" stroke-linejoin="round"/>
<path d="M53.6499 65.6864L43.6609 77.8611" stroke="#99CC33" stroke-miterlimit="10" stroke-linecap="round" stroke-linejoin="round"/>
<path d="M90.1739 174.193L92.7509 188.878" stroke="#99CC33" stroke-miterlimit="10" stroke-linecap="round" stroke-linejoin="round"/>
<path d="M92.8352 58.3648L77.5597 76.2775" stroke="#99CC33" stroke-miterlimit="10" stroke-linecap="round" stroke-linejoin="round"/>
<path d="M51.0067 145.346L52.1507 156.063" stroke="#99CC33" stroke-miterlimit="10" stroke-linecap="round" stroke-linejoin="round"/>
<path d="M54.7518 192.768L54.6254 210.626" stroke="#99CC33" stroke-miterlimit="10" stroke-linecap="round" stroke-linejoin="round"/>
<path d="M65.385 94.1361L52.7648 116.763" stroke="#99CC33" stroke-miterlimit="10" stroke-linecap="round" stroke-linejoin="round"/>
<path d="M50.3865 82.2745L55.9801 92.2876" stroke="#99CC33" stroke-miterlimit="10" stroke-linecap="round" stroke-linejoin="round"/>
<path d="M136.717 64.8555L138.62 75.6634" stroke="#99CC33" stroke-miterlimit="10" stroke-linecap="round" stroke-linejoin="round"/>
<path d="M52.1506 156.063L53.7884 168.629" stroke="#99CC33" stroke-miterlimit="10" stroke-linecap="round" stroke-linejoin="round"/>
<path d="M24.7125 132.689L35.3398 138.15" stroke="#99CC33" stroke-miterlimit="10" stroke-linecap="round" stroke-linejoin="round"/>
<path d="M56.3835 135.369L51.0067 145.346" stroke="#99CC33" stroke-miterlimit="10" stroke-linecap="round" stroke-linejoin="round"/>
<path d="M46.7076 127.439L66.3906 143.431" stroke="#99CC33" stroke-miterlimit="10" stroke-linecap="round" stroke-linejoin="round"/>
<path d="M35.3398 138.15L24.7125 145.791" stroke="#99CC33" stroke-miterlimit="10" stroke-linecap="round" stroke-linejoin="round"/>
<path d="M92.203 84.2374L82.4127 86.7723" stroke="#99CC33" stroke-miterlimit="10" stroke-linecap="round" stroke-linejoin="round"/>
<path d="M52.1507 156.063L43.1733 163.848L41.7583 175.222" stroke="#99CC33" stroke-miterlimit="10" stroke-linecap="round" stroke-linejoin="round"/>
<path d="M114.927 53.8369L92.8352 58.3647" stroke="#99CC33" stroke-miterlimit="10" stroke-linecap="round" stroke-linejoin="round"/>
<path d="M21.8947 123.778L20.8651 132.918L24.7126 138.204" stroke="#99CC33" stroke-miterlimit="10" stroke-linecap="round" stroke-linejoin="round"/>
<path d="M41.7583 175.222L48.7127 178.781" stroke="#99CC33" stroke-miterlimit="10" stroke-linecap="round" stroke-linejoin="round"/>
<path d="M159.218 118.076L154.871 125.885" stroke="#99CC33" stroke-miterlimit="10" stroke-linecap="round" stroke-linejoin="round"/>
<path d="M65.5597 102.036L67.7634 108.298" stroke="#99CC33" stroke-miterlimit="10" stroke-linecap="round" stroke-linejoin="round"/>
<path d="M106.943 150.205L101.518 164.186" stroke="#99CC33" stroke-miterlimit="10" stroke-linecap="round" stroke-linejoin="round"/>
<path d="M101.518 164.186L110.634 184.501" stroke="#99CC33" stroke-miterlimit="10" stroke-linecap="round" stroke-linejoin="round"/>
<path d="M39.0488 161.596L43.1732 163.848" stroke="#99CC33" stroke-miterlimit="10" stroke-linecap="round" stroke-linejoin="round"/>
<path d="M138.62 75.6634L102.132 56.4561L136.717 64.8555" stroke="#99CC33" stroke-miterlimit="10" stroke-linecap="round" stroke-linejoin="round"/>
<path d="M92.8352 58.3648L98.4649 80.685L95.2918 92.1672L75.8678 110.875" stroke="#99CC33" stroke-miterlimit="10" stroke-linecap="round" stroke-linejoin="round"/>
<path d="M92.8352 58.3648L89.0841 70.5274L77.5597 76.2775" stroke="#99CC33" stroke-miterlimit="10" stroke-linecap="round" stroke-linejoin="round"/>
<path d="M110.7 60.9659L121.478 84.4963L134.369 85.3633L151.86 101.361" stroke="#99CC33" stroke-miterlimit="10" stroke-linecap="round" stroke-linejoin="round"/>
<path d="M65.5596 102.036L65.385 94.1361" stroke="#99CC33" stroke-miterlimit="10" stroke-linecap="round" stroke-linejoin="round"/>
<path d="M55.9801 92.2876L52.7648 99.8381" stroke="#99CC33" stroke-miterlimit="10" stroke-linecap="round" stroke-linejoin="round"/>
<path d="M57.2024 92.6609L54.5531 98.8867" stroke="#99CC33" stroke-miterlimit="10" stroke-linecap="round" stroke-linejoin="round"/>
<path d="M58.4186 93.0342L56.3413 97.9354" stroke="#99CC33" stroke-miterlimit="10" stroke-linecap="round" stroke-linejoin="round"/>
<path d="M59.6409 93.4136L58.1236 96.978" stroke="#99CC33" stroke-miterlimit="10" stroke-linecap="round" stroke-linejoin="round"/>
<path d="M60.8632 93.7869L59.9119 96.0267" stroke="#99CC33" stroke-miterlimit="10" stroke-linecap="round" stroke-linejoin="round"/>
<path d="M62.0855 94.1662L61.7001 95.0754" stroke="#99CC33" stroke-miterlimit="10" stroke-linecap="round" stroke-linejoin="round"/>
<path d="M65.3851 94.1361L55.9801 92.2876" stroke="#99CC33" stroke-miterlimit="10" stroke-linecap="round" stroke-linejoin="round"/>
<path d="M95.2918 92.1672L86.0796 111.206L75.8678 110.875" stroke="#99CC33" stroke-miterlimit="10" stroke-linecap="round" stroke-linejoin="round"/>
<path d="M16 113.121L21.8947 123.778" stroke="#99CC33" stroke-miterlimit="10" stroke-linecap="round" stroke-linejoin="round"/>
<path d="M32.1125 115.288L16 113.121" stroke="#99CC33" stroke-miterlimit="10" stroke-linecap="round" stroke-linejoin="round"/>
<path d="M30.5891 116.306L16.9633 114.475" stroke="#99CC33" stroke-miterlimit="10" stroke-linecap="round" stroke-linejoin="round"/>
<path d="M29.0718 117.329L17.9268 115.836" stroke="#99CC33" stroke-miterlimit="10" stroke-linecap="round" stroke-linejoin="round"/>
<path d="M27.5484 118.353L18.8901 117.191" stroke="#99CC33" stroke-miterlimit="10" stroke-linecap="round" stroke-linejoin="round"/>
<path d="M26.0311 119.377L19.8475 118.546" stroke="#99CC33" stroke-miterlimit="10" stroke-linecap="round" stroke-linejoin="round"/>
<path d="M24.5138 120.4L20.8108 119.906" stroke="#99CC33" stroke-miterlimit="10" stroke-linecap="round" stroke-linejoin="round"/>
<path d="M22.9904 121.424L21.7742 121.261" stroke="#99CC33" stroke-miterlimit="10" stroke-linecap="round" stroke-linejoin="round"/>
<path d="M62.2481 210.114L56.6484 179.136L48.7126 178.781L73.6761 236.559" stroke="#99CC33" stroke-miterlimit="10" stroke-linecap="round" stroke-linejoin="round"/>
<path d="M154.871 125.885L135.615 98.682" stroke="#99CC33" stroke-miterlimit="10" stroke-linecap="round" stroke-linejoin="round"/>
</g>
<path d="M56.5057 18.4465C56.5057 20.1265 55.3057 21.1465 53.2857 21.1465H49.9457V15.6865H53.2257C55.2257 15.6865 56.5057 16.7665 56.5057 18.4465ZM56.1657 12.0065C56.1657 13.5665 55.1057 14.5265 53.2057 14.5265H49.9457V9.52654H53.1457C55.1657 9.52654 56.1657 10.5065 56.1657 12.0065ZM57.9057 18.5865C57.9057 16.8265 56.6457 15.3865 55.0857 15.1065C56.4257 14.7265 57.5857 13.7065 57.5857 11.8665C57.5857 9.90654 56.1857 8.34654 53.2457 8.34654H48.5457V22.3265H53.3857C56.3257 22.3265 57.9057 20.6865 57.9057 18.5865ZM69.9393 11.4065H68.5393V17.3465C68.5393 20.0065 67.1193 21.2865 65.0793 21.2865C63.0793 21.2865 61.7593 20.0465 61.7593 17.6265V11.4065H60.3793V17.7865C60.3793 20.9865 62.3393 22.5065 64.8193 22.5065C66.4393 22.5065 67.8793 21.7865 68.5393 20.4065V22.3265H69.9393V11.4065ZM80.6956 19.4265C80.6356 15.5665 74.1756 17.1465 74.1756 14.1865C74.1756 13.2265 75.0956 12.4465 76.5556 12.4465C78.2156 12.4465 79.1156 13.3665 79.1956 14.5865H80.5956C80.4756 12.4865 78.9356 11.2465 76.5956 11.2465C74.2956 11.2465 72.7556 12.5865 72.7556 14.2065C72.7556 18.3065 79.3156 16.7265 79.3156 19.4265C79.3156 20.4665 78.4356 21.3065 76.8756 21.3065C75.0956 21.3065 74.0556 20.4465 73.9356 19.2465H72.4956C72.6756 21.2465 74.4156 22.4865 76.8956 22.4865C79.1556 22.4865 80.6956 21.1865 80.6956 19.4265ZM83.3309 22.3265H84.7309V11.4065H83.3309V22.3265ZM84.0309 9.34654C84.5909 9.34654 85.0509 8.90654 85.0509 8.30654C85.0509 7.70654 84.5909 7.28654 84.0309 7.28654C83.4709 7.28654 83.0109 7.70654 83.0109 8.30654C83.0109 8.90654 83.4709 9.34654 84.0309 9.34654ZM96.0812 22.3265H97.4612V15.9265C97.4612 12.7265 95.5012 11.2065 93.0212 11.2065C91.4012 11.2065 90.0012 11.9065 89.3012 13.2665V11.4065H87.9012V22.3265H89.3012V16.3665C89.3012 13.7065 90.7212 12.4265 92.7612 12.4265C94.7612 12.4265 96.0812 13.6665 96.0812 16.0865V22.3265ZM105.217 12.4465C107.237 12.4465 109.077 13.7265 109.017 16.2665H101.337C101.497 13.7265 103.237 12.4465 105.217 12.4465ZM110.277 18.8665H108.797C108.397 20.3265 107.137 21.3065 105.277 21.3065C103.237 21.3065 101.457 19.9665 101.337 17.4065H110.397C110.437 17.0265 110.437 16.7465 110.437 16.3065C110.437 13.5265 108.477 11.2465 105.277 11.2465C102.137 11.2465 99.9174 13.3865 99.9174 16.8665C99.9174 20.3265 102.177 22.4865 105.277 22.4865C108.017 22.4865 109.777 20.9265 110.277 18.8665ZM120.559 19.4265C120.499 15.5665 114.039 17.1465 114.039 14.1865C114.039 13.2265 114.959 12.4465 116.419 12.4465C118.079 12.4465 118.979 13.3665 119.059 14.5865H120.459C120.339 12.4865 118.799 11.2465 116.459 11.2465C114.159 11.2465 112.619 12.5865 112.619 14.2065C112.619 18.3065 119.179 16.7265 119.179 19.4265C119.179 20.4665 118.299 21.3065 116.739 21.3065C114.959 21.3065 113.919 20.4465 113.799 19.2465H112.359C112.539 21.2465 114.279 22.4865 116.759 22.4865C119.019 22.4865 120.559 21.1865 120.559 19.4265ZM130.754 19.4265C130.694 15.5665 124.234 17.1465 124.234 14.1865C124.234 13.2265 125.154 12.4465 126.614 12.4465C128.274 12.4465 129.174 13.3665 129.254 14.5865H130.654C130.534 12.4865 128.994 11.2465 126.654 11.2465C124.354 11.2465 122.814 12.5865 122.814 14.2065C122.814 18.3065 129.374 16.7265 129.374 19.4265C129.374 20.4665 128.494 21.3065 126.934 21.3065C125.154 21.3065 124.114 20.4465 123.994 19.2465H122.554C122.734 21.2465 124.474 22.4865 126.954 22.4865C129.214 22.4865 130.754 21.1865 130.754 19.4265Z" fill="#99CC33"/>
<defs>
<filter id="filter0_d" x="0.499908" y="22.8264" width="178.059" height="229.233" filterUnits="userSpaceOnUse" color-interpolation-filters="sRGB">
<feFlood flood-opacity="0" result="BackgroundImageFix"/>
<feColorMatrix in="SourceAlpha" type="matrix" values="0 0 0 0 0 0 0 0 0 0 0 0 0 0 0 0 0 0 127 0"/>
<feOffset/>
<feGaussianBlur stdDeviation="7.5"/>
<feColorMatrix type="matrix" values="0 0 0 0 0.6 0 0 0 0 0.8 0 0 0 0 0.2 0 0 0 1 0"/>
<feBlend mode="hard-light" in2="BackgroundImageFix" result="effect1_dropShadow"/>
<feBlend mode="normal" in="SourceGraphic" in2="effect1_dropShadow" result="shape"/>
</filter>
</defs>
</svg>
