<svg width="209" height="212" viewBox="0 0 209 212" fill="none" xmlns="http://www.w3.org/2000/svg">
<g filter="url(#filter0_d)">
<path d="M176.041 102.791L159.868 89.2077L161.969 84.1018L91.8357 69.9642" stroke="#FF0099" stroke-miterlimit="10" stroke-linecap="round" stroke-linejoin="round"/>
<path d="M91.8357 69.9642L121.062 82.5363L186.59 118.47L181.363 125.647" stroke="#FF0099" stroke-miterlimit="10" stroke-linecap="round" stroke-linejoin="round"/>
<path d="M121.062 82.5363L176.041 102.791L169.526 109.113" stroke="#FF0099" stroke-miterlimit="10" stroke-linecap="round" stroke-linejoin="round"/>
<path d="M121.062 82.5363L161.969 84.1018" stroke="#FF0099" stroke-miterlimit="10" stroke-linecap="round" stroke-linejoin="round"/>
<path d="M121.062 82.5363L159.868 89.2077" stroke="#FF0099" stroke-miterlimit="10" stroke-linecap="round" stroke-linejoin="round"/>
<path d="M92.0103 70.0425L189.763 130.874L185.139 141.995" stroke="#FF0099" stroke-miterlimit="10" stroke-linecap="round" stroke-linejoin="round"/>
<path d="M143.491 102.075L185.139 141.995L193.026 155.44" stroke="#FF0099" stroke-miterlimit="10" stroke-linecap="round" stroke-linejoin="round"/>
<path d="M143.491 102.075L193.026 155.44L178.064 161.401" stroke="#FF0099" stroke-miterlimit="10" stroke-linecap="round" stroke-linejoin="round"/>
<path d="M143.491 102.075L178.064 161.401L168.262 172.564" stroke="#FF0099" stroke-miterlimit="10" stroke-linecap="round" stroke-linejoin="round"/>
<path d="M143.491 102.075L168.261 172.564L142.088 195.787" stroke="#FF0099" stroke-miterlimit="10" stroke-linecap="round" stroke-linejoin="round"/>
<path d="M107.713 106.019L92.0103 70.0425L97.4895 54.3455L88.5301 37.9621L78.7278 55.4654L78.499 67.5558L77.3309 94.8133" stroke="#FF0099" stroke-miterlimit="10" stroke-linecap="round" stroke-linejoin="round"/>
<path d="M143.491 102.075L142.088 195.787L107.009 187.502L107.713 106.019" stroke="#FF0099" stroke-miterlimit="10" stroke-linecap="round" stroke-linejoin="round"/>
<path d="M143.491 102.075L107.713 106.019L142.088 195.787L107.171 168.596L88.1087 137.322L77.2165 145.168L60.7488 142.735L46.9123 151.189L37.8806 157.15L19.8776 152.405L16 140.038L18.0712 130.874L58.5691 89.7315L50.8561 91.9834L51.3378 85.5529L60.9836 75.7505L65.6439 68.8383L78.499 67.5558L83.9601 70.7711L91.8357 69.9642L135.386 73.0169L148.241 81.3321" stroke="#FF0099" stroke-miterlimit="10" stroke-linecap="round" stroke-linejoin="round"/>
<path d="M107.713 106.019L83.9601 70.7711L78.7278 55.4654L86.5672 49.0229L88.5301 55.044L77.3309 94.8133" stroke="#FF0099" stroke-miterlimit="10" stroke-linecap="round" stroke-linejoin="round"/>
<path d="M97.4895 54.3455L88.5301 55.044" stroke="#FF0099" stroke-miterlimit="10" stroke-linecap="round" stroke-linejoin="round"/>
<path d="M88.5301 37.9621L86.5672 49.0229" stroke="#FF0099" stroke-miterlimit="10" stroke-linecap="round" stroke-linejoin="round"/>
<path d="M58.5691 89.7315L60.9836 75.7505L78.4989 67.5558L58.5691 89.7315Z" stroke="#FF0099" stroke-miterlimit="10" stroke-linecap="round" stroke-linejoin="round"/>
<path d="M60.9836 75.7505L88.1087 137.322" stroke="#FF0099" stroke-miterlimit="10" stroke-linecap="round" stroke-linejoin="round"/>
<path d="M51.3377 85.5529L58.5691 89.7315L77.3308 94.8133L107.713 106.019L88.1086 137.322L51.1451 126.876L41.4391 117.82L32.2509 116.471L29.3005 130.886L16.9091 136.022" stroke="#FF0099" stroke-miterlimit="10" stroke-linecap="round" stroke-linejoin="round"/>
<path d="M77.3309 94.8133L88.1087 137.322" stroke="#FF0099" stroke-miterlimit="10" stroke-linecap="round" stroke-linejoin="round"/>
<path d="M58.5691 89.7315L88.1087 137.322" stroke="#FF0099" stroke-miterlimit="10" stroke-linecap="round" stroke-linejoin="round"/>
<path d="M58.5691 89.7315L77.2164 145.168" stroke="#FF0099" stroke-miterlimit="10" stroke-linecap="round" stroke-linejoin="round"/>
<path d="M58.5691 89.7315L46.9123 151.189" stroke="#FF0099" stroke-miterlimit="10" stroke-linecap="round" stroke-linejoin="round"/>
<path d="M58.5691 89.7315L19.8775 152.405" stroke="#FF0099" stroke-miterlimit="10" stroke-linecap="round" stroke-linejoin="round"/>
<path d="M19.8775 152.405L22.4907 138.545L41.4391 117.82L48.4597 143.024L19.8775 152.405Z" stroke="#FF0099" stroke-miterlimit="10" stroke-linecap="round" stroke-linejoin="round"/>
<path d="M37.8806 157.15L28.4336 138.551L51.1451 126.876L60.7487 142.735" stroke="#FF0099" stroke-miterlimit="10" stroke-linecap="round" stroke-linejoin="round"/>
<path d="M16.9092 136.022C17.0055 136.305 28.4336 138.551 28.4336 138.551L16 140.038" stroke="#FF0099" stroke-miterlimit="10" stroke-linecap="round" stroke-linejoin="round"/>
<path d="M28.4336 138.551L48.4597 143.024L60.7487 142.735" stroke="#FF0099" stroke-miterlimit="10" stroke-linecap="round" stroke-linejoin="round"/>
<path d="M62.0914 95.4034L77.3309 94.8133L66.2339 102.075L62.0914 95.4034Z" stroke="#FF0099" stroke-miterlimit="10" stroke-linecap="round" stroke-linejoin="round"/>
<path d="M62.0914 95.4034L67.8958 97.8058L66.2339 102.075" stroke="#FF0099" stroke-miterlimit="10" stroke-linecap="round" stroke-linejoin="round"/>
<path d="M70.4789 97.306L67.8958 97.8058" stroke="#FF0099" stroke-miterlimit="10" stroke-linecap="round" stroke-linejoin="round"/>
</g>
<path d="M67.6254 22H69.0254V15.56H74.2254V14.4H69.0254V9.18H75.1854V8.02H67.6254V22ZM77.4887 22H78.8887V11.08H77.4887V22ZM78.1887 9.02C78.7487 9.02 79.2087 8.58 79.2087 7.98C79.2087 7.38 78.7487 6.96 78.1887 6.96C77.6287 6.96 77.1687 7.38 77.1687 7.98C77.1687 8.58 77.6287 9.02 78.1887 9.02ZM90.239 22H91.619V15.6C91.619 12.4 89.659 10.88 87.179 10.88C85.559 10.88 84.159 11.58 83.459 12.94V11.08H82.059V22H83.459V16.04C83.459 13.38 84.879 12.1 86.919 12.1C88.919 12.1 90.239 13.34 90.239 15.76V22ZM94.0752 16.52C94.0752 19.94 96.2952 22.16 99.2752 22.16C101.455 22.16 102.975 20.98 103.615 19.58V22H105.015V11.08H103.615V13.48C102.995 12.1 101.495 10.92 99.2952 10.92C96.2952 10.92 94.0752 13.1 94.0752 16.52ZM103.615 16.54C103.615 19.26 101.795 20.94 99.5552 20.94C97.2552 20.94 95.4952 19.28 95.4952 16.52C95.4952 13.74 97.2552 12.14 99.5552 12.14C101.795 12.14 103.615 13.82 103.615 16.54ZM116.391 22H117.771V15.6C117.771 12.4 115.811 10.88 113.331 10.88C111.711 10.88 110.311 11.58 109.611 12.94V11.08H108.211V22H109.611V16.04C109.611 13.38 111.031 12.1 113.071 12.1C115.071 12.1 116.391 13.34 116.391 15.76V22ZM120.228 16.54C120.228 20 122.448 22.16 125.528 22.16C128.268 22.16 130.048 20.62 130.548 18.44H129.048C128.668 20.04 127.368 20.98 125.528 20.98C123.388 20.98 121.648 19.5 121.648 16.54C121.648 13.58 123.388 12.12 125.528 12.12C127.368 12.12 128.688 13.08 129.048 14.64H130.548C130.048 12.38 128.268 10.92 125.528 10.92C122.448 10.92 120.228 13.08 120.228 16.54ZM137.793 12.12C139.813 12.12 141.653 13.4 141.593 15.94H133.913C134.073 13.4 135.813 12.12 137.793 12.12ZM142.853 18.54H141.373C140.973 20 139.713 20.98 137.853 20.98C135.813 20.98 134.033 19.64 133.913 17.08H142.973C143.013 16.7 143.013 16.42 143.013 15.98C143.013 13.2 141.053 10.92 137.853 10.92C134.713 10.92 132.493 13.06 132.493 16.54C132.493 20 134.753 22.16 137.853 22.16C140.593 22.16 142.353 20.6 142.853 18.54Z" fill="#FF0099"/>
<defs>
<filter id="filter0_d" x="0.499939" y="22.462" width="208.026" height="188.825" filterUnits="userSpaceOnUse" color-interpolation-filters="sRGB">
<feFlood flood-opacity="0" result="BackgroundImageFix"/>
<feColorMatrix in="SourceAlpha" type="matrix" values="0 0 0 0 0 0 0 0 0 0 0 0 0 0 0 0 0 0 127 0"/>
<feOffset/>
<feGaussianBlur stdDeviation="7.5"/>
<feColorMatrix type="matrix" values="0 0 0 0 1 0 0 0 0 0 0 0 0 0 0.6 0 0 0 1 0"/>
<feBlend mode="hard-light" in2="BackgroundImageFix" result="effect1_dropShadow"/>
<feBlend mode="normal" in="SourceGraphic" in2="effect1_dropShadow" result="shape"/>
</filter>
</defs>
</svg>
